<?xml version="1.0" standalone="no"?>
<!DOCTYPE svg PUBLIC "-//W3C//DTD SVG 20010904//EN"
 "http://www.w3.org/TR/2001/REC-SVG-20010904/DTD/svg10.dtd">
<svg version="1.0" xmlns="http://www.w3.org/2000/svg"
 width="300.000000pt" height="300.000000pt" viewBox="0 0 300.000000 300.000000"
 preserveAspectRatio="xMidYMid meet">
<metadata>
Created by potrace 1.14, written by Peter Selinger 2001-2017
</metadata>
<g transform="translate(0.000000,300.000000) scale(0.100000,-0.100000)"
fill="#000000" stroke="none">
<path d="M1310 2250 c-12 -12 -20 -33 -20 -55 0 -29 -5 -36 -35 -51 -32 -15
-35 -20 -35 -58 0 -37 -4 -43 -34 -60 -196 -105 -346 -373 -346 -615 1 -334
175 -520 488 -521 l82 0 0 -48 0 -49 -77 -17 c-144 -31 -253 -92 -253 -140 0
-9 -26 -23 -63 -35 -34 -12 -79 -32 -98 -45 l-35 -24 -62 30 c-110 54 -250 50
-381 -13 -87 -40 -133 -79 -180 -150 -71 -106 -100 -255 -70 -361 13 -49 34
-51 25 -2 -13 65 -7 189 10 240 16 48 83 159 91 151 2 -2 -1 -15 -6 -29 -5
-13 -12 -51 -16 -84 -4 -32 -13 -81 -21 -108 -8 -27 -14 -85 -14 -128 l0 -78
303 2 302 3 0 75 c0 41 -4 99 -8 128 l-8 54 41 -23 c68 -38 75 -51 78 -150 l4
-89 1014 0 1014 0 0 270 0 270 -39 25 c-53 36 -162 72 -237 80 -130 14 -286
-36 -388 -126 -40 -36 -47 -38 -52 -22 -17 53 -29 81 -46 105 -23 34 -108 76
-170 84 -40 6 -51 12 -64 35 -29 56 -136 89 -291 89 -80 0 -84 1 -93 26 -6 14
-10 37 -10 52 0 24 7 30 53 46 169 59 300 181 357 334 29 76 29 225 1 333 -69
268 -264 490 -452 515 -35 5 -50 12 -54 25 -4 12 -16 19 -33 19 -36 0 -48 9
-56 43 -15 62 -76 87 -116 47z m30 -33 c0 -23 -17 -47 -32 -47 -11 0 -10 28 2
51 14 26 30 24 30 -4z m41 -94 c27 3 51 2 54 -4 4 -5 4 -9 2 -9 -2 0 -29 -5
-60 -10 -85 -16 -182 15 -102 32 11 3 29 0 39 -5 11 -5 41 -7 67 -4z m-137
-149 c10 -4 16 -18 16 -35 0 -56 -82 -79 -106 -30 -15 29 -10 45 19 59 26 12
49 14 71 6z m-120 -90 c23 -9 20 -53 -7 -95 -71 -114 -147 -154 -147 -77 0 47
27 91 84 138 26 22 50 40 51 40 2 0 10 -3 19 -6z m458 -151 c43 -39 12 -122
-56 -148 -41 -16 -46 -16 -79 0 -39 18 -57 50 -57 100 0 62 4 65 93 65 61 0
85 -4 99 -17z m-317 -28 c37 -36 33 -79 -9 -121 -38 -38 -77 -44 -125 -19 -33
17 -41 33 -41 85 0 43 12 54 77 69 60 14 72 13 98 -14z m-348 -158 c-4 -53
-16 -121 -29 -162 l-23 -70 -3 55 c-2 30 -1 83 3 118 6 56 9 62 26 57 15 -5
19 -1 19 15 0 16 -4 20 -16 16 -12 -5 -14 -1 -8 17 7 23 23 47 32 47 3 0 2
-42 -1 -93z m153 -994 c0 -25 5 -75 11 -110 13 -76 32 -94 127 -123 200 -62
502 -41 675 47 l51 26 68 -22 c37 -12 70 -26 73 -30 8 -13 -103 -59 -196 -80
-364 -86 -781 -60 -957 61 -46 32 -82 81 -82 111 0 29 28 71 65 96 31 21 140
70 158 71 4 0 7 -21 7 -47z m-420 8 c0 -26 -61 -75 -152 -121 -64 -34 -117
-69 -146 -98 l-45 -46 8 44 c15 92 43 136 110 176 69 40 225 71 225 45z"/>
<path d="M1476 1684 c-7 -19 12 -47 25 -38 5 3 9 16 9 30 0 27 -24 33 -34 8z"/>
<path d="M1180 1645 c0 -20 4 -26 18 -23 9 2 17 12 17 23 0 11 -8 21 -17 23
-14 3 -18 -3 -18 -23z"/>
<path d="M874 1467 c-8 -21 2 -35 16 -21 5 5 6 15 0 24 -8 12 -10 12 -16 -3z"/>
</g>
</svg>
